<svg xmlns="http://www.w3.org/2000/svg" viewBox="0 0 145.47 55.63"><defs><style>.cls-1{fill:#59b8b0;}</style></defs><title>Fichier 3</title><g id="Calque_2" data-name="Calque 2"><g id="Bauer_Bodoni_Std_1_Roman" data-name="Bauer Bodoni Std 1 Roman"><g id="_37DEUX_VOYAGES" data-name="37DEUX VOYAGES"><path id="Bauer_Bodoni_Std_1_Roman-2" data-name="Bauer Bodoni Std 1 Roman" class="cls-1" d="M13,50.1H13l4.76-13.37a16.38,16.38,0,0,0,1.17-3.68c0-.74-.3-1.28-2.61-1.28H16v-.53h7.31v.53h-.91c-1.91,0-2.48.94-3,2.32L11.61,55.63h-.34L2.93,31.77H.21v-.53H10v.53H6.78Z"/><path id="Bauer_Bodoni_Std_1_Roman-3" data-name="Bauer Bodoni Std 1 Roman" class="cls-1" d="M32.59,30.7c5.67,0,10.59,5.46,10.59,12.33S38.26,55.36,32.59,55.36,22,49.9,22,43,26.93,30.7,32.59,30.7Zm0,24.13c6,0,6.77-7.41,6.77-11.8s-.8-11.79-6.77-11.79S25.83,38.64,25.83,43,26.63,54.83,32.59,54.83Z"/><path id="Bauer_Bodoni_Std_1_Roman-4" data-name="Bauer Bodoni Std 1 Roman" class="cls-1" d="M51,46.18,44.73,31.77h-3v-.53h9.75v.53H48.66l5.59,13,4.15-9.38a7,7,0,0,0,.88-2.68c0-.57-.41-.91-1.51-.91H56.49v-.53h6.87v.53H62c-1.28,0-1.68.88-2.11,1.85l-5.43,12v8.64H58v.54H47.45v-.54H51Z"/><path class="cls-1" d="M74.3,47.19H67.13l-1.38,4.22a7.38,7.38,0,0,0-.5,2c0,.47.4.84,1.48.84h1.74v.54h-6.9v-.54h1.07c1,0,1.47-.1,2.11-2L72,30.7h.37l8.14,23.59h2.79v.54H73.43v-.54h3.28ZM70.68,36.5h-.07L67.33,46.65h6.8Z"/><path class="cls-1" d="M99.57,47.79H96.49v-.53h9.35v.53h-2.65v4a13.31,13.31,0,0,1-9,3.58c-6,0-10.59-4.42-10.59-12.33,0-6.87,4.93-12.33,10.59-12.33,3.69,0,5.33,2.28,6.43,2.28s1.18-.84,1.18-1.67h.53v7.17h-.53a7.83,7.83,0,0,0-7.61-7.24c-6,0-6.77,7.4-6.77,11.79s.81,11.8,6.77,11.8c3.22,0,5.39-1,5.39-4.09Z"/><path class="cls-1" d="M109.81,31.77h-3v-.53h17.86l.4,5.7h-.54c0-3.86-2.54-5.17-6.09-5.17h-5.27V42.56h2.52c3.48,0,3.82-2.11,3.82-4.28h.53v8.91h-.53c0-2.55-.34-4.09-3.86-4.09h-2.48V54.29h4.59c5.43,0,8-.64,8-6.33h.53v6.87H106.86v-.54h3Z"/><path class="cls-1" d="M130.46,46.55H131c0,5.63,3.32,8.28,7.34,8.28,3.22,0,5.53-2,5.53-5.06,0-3.49-1.81-4.53-5.66-5.13-5.26-.84-7.74-1.71-7.74-7.34,0-3.82,2.51-6.6,6.27-6.6,3.45,0,4.75,2.05,5.89,2.05.77,0,.87-.84,1-1.28h.54v7h-.54c-.3-3.82-2.38-7.27-6.86-7.27a4.62,4.62,0,0,0-4.86,5c0,3,1.14,3.68,6.7,4.69,4.89.87,6.9,2.44,6.9,6.8s-2.41,7.67-7.27,7.67c-3.35,0-5.13-1.74-6.37-1.74-.8,0-.84.84-.84,1.41h-.53Z"/><path class="cls-1" d="M3.06,11.52H5.82c4.13,0,6.56-.41,6.56-5.89,0-3.1-1.31-5-4.63-5C4.92.6,2.83,2.42,2.83,3.28c0,.11,0,.26.12.26a5,5,0,0,1,.59-.07A1.6,1.6,0,0,1,5.29,5.26,1.58,1.58,0,0,1,3.65,6.82,2,2,0,0,1,1.71,4.77C1.71,1.42,5.29,0,8.2,0,12,0,15.73,1.83,15.73,5.63c0,4.66-4.32,5.66-6.49,6.11v.08c2.61.22,7.61,1.71,7.61,7.3,0,5.14-5.63,7.79-9.73,7.79C4,26.91,0,25.61,0,21.54a2.37,2.37,0,0,1,2.24-2.35,1.77,1.77,0,0,1,2,2A1.83,1.83,0,0,1,2.35,23c-.34,0-.56-.11-.86-.11a.35.35,0,0,0-.37.37c0,1.75,3.39,3.06,5.44,3.06,5.07,0,6.71-2.65,6.71-7.24,0-2.83-.89-7-6-7H3.06Z"/><path class="cls-1" d="M22,.45H38.74l-5,10.13c-1.9,3.92-5,10.85-5,12.49a.33.33,0,0,0,.37.37c.3,0,.63-.11.89-.11a1.68,1.68,0,1,1,0,3.36c-1.11,0-1.86-1-1.86-2.65,0-3.24,2.46-8.46,5.52-16.14l1.71-4.32H22.56c-.22.74-.67,2.23-.86,3.24h-.59Z"/><path class="cls-1" d="M44.12.82H40.58V.22H52.24C62.16.22,65,8.39,65,13.34c0,8.13-5,13.12-12.67,13.12H40.58v-.59h3.54Zm3.8,25.05h3.2c3.36,0,9.58-1.27,9.58-12.53C60.7,7,58.88.82,49.75.82H47.92Z"/><path class="cls-1" d="M71,.82H67.76V.22H87.63l.45,6.34h-.6c0-4.29-2.83-5.74-6.78-5.74H74.84v12h2.8c3.88,0,4.25-2.35,4.25-4.77h.6V18h-.6c0-2.84-.37-4.55-4.29-4.55H74.84V25.87H80c6,0,9-.71,9-7h.59v7.64H67.76v-.59H71Z"/><path class="cls-1" d="M92.38.22h11.29v.6h-4V20.31c0,4.25,3.21,6.15,6.37,6.15,5.22,0,8.5-2.49,8.5-8V3.35c0-2-.63-2.53-2.27-2.53h-2.09V.22h8.65v.6H117.2c-1.6,0-2,.67-2,2.57V18.86c0,5.81-4.18,8.2-9.13,8.2-6.15,0-10.14-1.45-10.14-7.38V.82H92.38Z"/><path class="cls-1" d="M133.51,10l4.43-7c.41-.63.52-.89.52-1.19,0-.64-.37-1-2.16-1h-1.15V.22h8.08v.6H142c-1.56,0-2.27.63-3.31,2.27l-4.77,7.53,8.53,15.25h3v.59H134.62v-.59H138L131.53,14.2l-5.48,8.57c-1.27,2-1.3,2.13-1.3,2.43s.52.67,1.45.67h1.86v.59H119.3v-.59h.94c1.79,0,3.05-.15,4.17-1.9l6.75-10.44L123.89.82h-3.24V.22h10.92v.6h-3.13Z"/><rect class="cls-1" y="28.41" width="145.47" height="1"/></g></g></g></svg>