<svg xmlns="http://www.w3.org/2000/svg" viewBox="0 0 74.84 9.6"><defs><style>.cls-1{fill:none;}.cls-2{fill:#59b9b0;}</style></defs><g id="Calque_2" data-name="Calque 2"><g id="Bauer_Bodoni_Std_1_Roman_-_copie" data-name="Bauer Bodoni Std 1 Roman - copie"><rect class="cls-1" width="74.84" height="9.6"/><path class="cls-2" d="M49.78,6.08a2.29,2.29,0,0,0,1.68.63c1.08,0,1.6-.55,1.6-1.28s-.84-1.07-1.5-1.22c-.45-.11-.79-.19-.79-.46s.2-.41.59-.41a1.72,1.72,0,0,1,1.14.44L53,3.16a2.2,2.2,0,0,0-1.55-.56c-.94,0-1.51.54-1.51,1.2,0,.89.83,1.07,1.48,1.22.46.1.81.21.81.5S52,6,51.51,6a1.73,1.73,0,0,1-1.27-.54Zm-3.21.56h2.82V5.91h-2V5h1.93V4.25H47.42V3.39h2V2.66H46.57Zm-4.48-2a2,2,0,0,0,2.12,2.07A2.22,2.22,0,0,0,45.9,6V4.44H44v.73h1.06v.49a1.35,1.35,0,0,1-.85.3A1.24,1.24,0,0,1,43,4.65a1.23,1.23,0,0,1,1.25-1.3,1.14,1.14,0,0,1,.94.5l.7-.38a1.85,1.85,0,0,0-1.64-.87,2,2,0,0,0-2.12,2.05m-2-1.25.66,1.82H39.39Zm1.14,3.24h.92l-1.53-4H39.52L38,6.64h.93L39.16,6h1.78Zm-5.12,0h.84V5l1.52-2.35h-1l-1,1.6-1-1.6h-1L36.07,5Zm-2.34-2a1.21,1.21,0,1,1-2.42,0,1.21,1.21,0,1,1,2.42,0m-3.29,0a2.08,2.08,0,0,0,4.16,0,2.08,2.08,0,0,0-4.16,0m-2.65,2h1.06l1.53-4h-1l-1.1,3.06-1.1-3.06h-1Zm-3.11,0h.6l-1.55-2,1.46-1.93h-.6L23.41,4.25,22.23,2.66h-.6L23.09,4.6l-1.55,2h.6L23.41,5ZM18,5.09a1.47,1.47,0,0,0,1.62,1.62,1.47,1.47,0,0,0,1.62-1.62V2.66h-.49V5.08a1.13,1.13,0,1,1-2.26,0V2.66H18ZM14.84,6.64h2.61V6.2H15.34V4.83h2.07V4.39H15.34V3.1h2.11V2.66H14.84ZM11.4,6.2V3.1h.87a1.45,1.45,0,0,1,1.52,1.55A1.46,1.46,0,0,1,12.27,6.2Zm-.49.44h1.36a1.93,1.93,0,0,0,2-2,1.94,1.94,0,0,0-2-2H10.91Zm-3.24,0H8.6l1.48-3.39V2.66h-3v.75h2Zm-4.1-.57a2,2,0,0,0,1.57.64c1,0,1.57-.48,1.57-1.17a1,1,0,0,0-.93-1,1,1,0,0,0,.87-.91c0-.66-.57-1.08-1.5-1.08a2,2,0,0,0-1.52.63L4,3.76a1.45,1.45,0,0,1,1-.42c.41,0,.74.16.74.48s-.3.44-.74.44H4.57V5h.49c.56,0,.8.15.8.47S5.59,6,5.11,6A1.62,1.62,0,0,1,4,5.52Z"/></g></g></svg>