<svg xmlns="http://www.w3.org/2000/svg" viewBox="0 0 74.84 9.6"><defs><style>.cls-1,.cls-4{fill:none;}.cls-2{fill:#59b9b0;}.cls-3{fill:#44403d;}.cls-4{stroke:#4a4a49;stroke-miterlimit:10;stroke-width:0.24px;}</style></defs><g id="Calque_2" data-name="Calque 2"><g id="Bauer_Bodoni_Std_1_Roman_-_copie" data-name="Bauer Bodoni Std 1 Roman - copie"><rect class="cls-1" width="74.84" height="9.6"/><path class="cls-2" d="M49.78,6.08a2.29,2.29,0,0,0,1.68.63c1.08,0,1.6-.55,1.6-1.28s-.84-1.07-1.5-1.22c-.45-.11-.79-.19-.79-.46s.2-.41.59-.41a1.72,1.72,0,0,1,1.14.44L53,3.16a2.2,2.2,0,0,0-1.55-.56c-.94,0-1.51.54-1.51,1.2,0,.89.83,1.07,1.48,1.22.46.1.81.21.81.5S52,6,51.51,6a1.73,1.73,0,0,1-1.27-.54Zm-3.21.56h2.82V5.91h-2V5h1.93V4.25H47.42V3.39h2V2.66H46.57Zm-4.48-2a2,2,0,0,0,2.12,2.07A2.22,2.22,0,0,0,45.9,6V4.44H44v.73h1.06v.49a1.35,1.35,0,0,1-.85.3A1.24,1.24,0,0,1,43,4.65a1.23,1.23,0,0,1,1.25-1.3,1.14,1.14,0,0,1,.94.5l.7-.38a1.85,1.85,0,0,0-1.64-.87,2,2,0,0,0-2.12,2.05m-2-1.25.66,1.82H39.39Zm1.14,3.24h.92l-1.53-4H39.52L38,6.64h.93L39.16,6h1.78Zm-5.12,0h.84V5l1.52-2.35h-1l-1,1.6-1-1.6h-1L36.07,5Zm-2.34-2a1.21,1.21,0,1,1-2.42,0,1.21,1.21,0,1,1,2.42,0m-3.29,0a2.08,2.08,0,0,0,4.16,0,2.08,2.08,0,0,0-4.16,0m-2.65,2h1.06l1.53-4h-1l-1.1,3.06-1.1-3.06h-1Zm-3.11,0h.6l-1.55-2,1.46-1.93h-.6L23.41,4.25,22.23,2.66h-.6L23.09,4.6l-1.55,2h.6L23.41,5ZM18,5.09a1.47,1.47,0,0,0,1.62,1.62,1.47,1.47,0,0,0,1.62-1.62V2.66h-.49V5.08a1.13,1.13,0,1,1-2.26,0V2.66H18ZM14.84,6.64h2.61V6.2H15.34V4.83h2.07V4.39H15.34V3.1h2.11V2.66H14.84ZM11.4,6.2V3.1h.87a1.45,1.45,0,0,1,1.52,1.55A1.46,1.46,0,0,1,12.27,6.2Zm-.49.44h1.36a1.93,1.93,0,0,0,2-2,1.94,1.94,0,0,0-2-2H10.91Zm-3.24,0H8.6l1.48-3.39V2.66h-3v.75h2Zm-4.1-.57a2,2,0,0,0,1.57.64c1,0,1.57-.48,1.57-1.17a1,1,0,0,0-.93-1,1,1,0,0,0,.87-.91c0-.66-.57-1.08-1.5-1.08a2,2,0,0,0-1.52.63L4,3.76a1.45,1.45,0,0,1,1-.42c.41,0,.74.16.74.48s-.3.44-.74.44H4.57V5h.49c.56,0,.8.15.8.47S5.59,6,5.11,6A1.62,1.62,0,0,1,4,5.52Z"/><path class="cls-3" d="M70.67,5.68a.4.4,0,0,1,.41.41h-.81a.41.41,0,0,1,.4-.41m-.6.48a.61.61,0,0,0,.62.65.66.66,0,0,0,.49-.19l-.09-.12a.52.52,0,0,1-.38.15.43.43,0,0,1-.44-.42h1V6.18a.59.59,0,0,0-.59-.66.61.61,0,0,0-.6.64m-1.22.46a.68.68,0,0,0,.5.19c.32,0,.48-.17.48-.37s-.25-.34-.46-.38-.3-.08-.3-.2.1-.19.27-.19a.48.48,0,0,1,.37.16l.09-.13a.63.63,0,0,0-.46-.18c-.29,0-.46.16-.46.35s.24.31.45.36.32.08.32.22-.11.2-.3.2a.57.57,0,0,1-.4-.17Zm-.46.16h.19V5.92a.35.35,0,0,0-.39-.4.56.56,0,0,0-.44.21V5.55h-.19V6.78h.19v-.9a.46.46,0,0,1,.36-.19.24.24,0,0,1,.28.28Zm-1.73-1.1a.39.39,0,0,1,.4.41h-.8a.41.41,0,0,1,.4-.41m-.6.48a.61.61,0,0,0,.62.65.68.68,0,0,0,.49-.19l-.09-.12a.54.54,0,0,1-.38.15.42.42,0,0,1-.44-.42h1V6.18a.6.6,0,0,0-.59-.66.61.61,0,0,0-.6.64m-.44,0c0,.27-.15.48-.4.48a.43.43,0,0,1-.36-.2V5.88a.45.45,0,0,1,.36-.19.42.42,0,0,1,.4.47m-.76,1.09V6.59a.5.5,0,0,0,.41.22c.33,0,.55-.25.55-.65s-.22-.64-.55-.64a.52.52,0,0,0-.41.21V5.55h-.19v1.7Zm-.76-.47h.19V5.89c0-.25-.12-.37-.35-.37a.53.53,0,0,0-.41.23.31.31,0,0,0-.33-.23.54.54,0,0,0-.4.21V5.55h-.19V6.78h.19v-.9a.44.44,0,0,1,.33-.19c.16,0,.22.1.22.25v.84h.19v-.9a.44.44,0,0,1,.33-.19c.16,0,.23.1.23.25Zm-2.4-.14a.43.43,0,0,1-.41-.48.41.41,0,1,1,.81,0,.43.43,0,0,1-.4.48m0,.17a.6.6,0,0,0,.6-.65.61.61,0,1,0-1.21,0,.6.6,0,0,0,.61.65m-1.87-.65a.61.61,0,0,0,.61.65.52.52,0,0,0,.45-.21l-.12-.12a.39.39,0,0,1-.32.16A.43.43,0,0,1,60,6.16a.42.42,0,0,1,.42-.47.39.39,0,0,1,.32.16l.12-.12a.52.52,0,0,0-.45-.21.61.61,0,0,0-.61.64M59,5.68a.4.4,0,0,1,.41.41H58.6a.41.41,0,0,1,.4-.41m-.6.48a.61.61,0,0,0,.62.65.66.66,0,0,0,.49-.19l-.09-.12a.52.52,0,0,1-.38.15.43.43,0,0,1-.44-.42h1V6.18A.59.59,0,0,0,59,5.52a.61.61,0,0,0-.6.64m.67-.8L59.5,5h-.2l-.38.36ZM57.63,6.78h.19V5.91a.47.47,0,0,1,.34-.2h.07v-.2a.53.53,0,0,0-.41.23v-.2h-.19Z"/><path class="cls-3" d="M69.93,3.26a.4.4,0,0,1,.41.41h-.81a.41.41,0,0,1,.4-.41m-.6.49a.61.61,0,0,0,.63.64.65.65,0,0,0,.48-.18l-.09-.13a.53.53,0,0,1-.38.16.44.44,0,0,1-.44-.43h1V3.76a.6.6,0,0,0-.59-.66.62.62,0,0,0-.61.65m-.5.28a.45.45,0,0,1-.37.19.42.42,0,0,1-.4-.47c0-.27.15-.48.4-.48a.46.46,0,0,1,.37.2Zm0,.33H69V2.67h-.19v.65a.51.51,0,0,0-.42-.22c-.32,0-.54.26-.54.65s.22.64.54.64a.52.52,0,0,0,.42-.21ZM66,4.2a.65.65,0,0,0,.5.19c.31,0,.48-.16.48-.37s-.25-.33-.46-.38-.3-.08-.3-.2.1-.18.27-.18a.49.49,0,0,1,.37.15l.09-.13a.63.63,0,0,0-.46-.18c-.29,0-.46.17-.46.36s.24.31.45.36.31.08.31.21-.1.21-.29.21a.52.52,0,0,1-.4-.18Zm-.8-.94a.4.4,0,0,1,.41.41h-.81a.41.41,0,0,1,.4-.41m-.6.49a.61.61,0,0,0,.63.64.69.69,0,0,0,.49-.18l-.1-.13a.51.51,0,0,1-.38.16.44.44,0,0,1-.44-.43h1V3.76a.6.6,0,0,0-.59-.66.62.62,0,0,0-.61.65m-.5.26a.45.45,0,0,1-.37.2c-.24,0-.39-.2-.39-.47s.15-.47.39-.47a.45.45,0,0,1,.37.2Zm-.89.67a.63.63,0,0,0,.49.18c.3,0,.59-.12.59-.53V3.13h-.19v.19a.5.5,0,0,0-.41-.22.56.56,0,0,0-.55.64.56.56,0,0,0,.55.64.53.53,0,0,0,.41-.22v.18c0,.27-.19.36-.4.36a.49.49,0,0,1-.4-.16Zm-.57-.58a.41.41,0,0,1-.34.16A.28.28,0,0,1,62,4a.27.27,0,0,1,.3-.27.43.43,0,0,1,.34.15Zm0,.26h.19V3.52c0-.3-.22-.42-.48-.42a.64.64,0,0,0-.49.21l.09.13a.48.48,0,0,1,.38-.17c.18,0,.31.09.31.26v.22a.53.53,0,0,0-.41-.17.41.41,0,1,0,0,.81.5.5,0,0,0,.41-.17Zm-2.06.31,0,.17.14,0A.35.35,0,0,0,61,4.61l.62-1.48h-.21l-.41,1-.41-1h-.2l.51,1.25-.08.18a.18.18,0,0,1-.18.13l-.11,0m-.88-.45a.43.43,0,0,1-.41-.47.42.42,0,1,1,.82,0,.43.43,0,0,1-.41.47m0,.17a.6.6,0,0,0,.61-.64.61.61,0,1,0-1.22,0,.61.61,0,0,0,.61.64m-1.54,0h.26l.68-1.69h-.24l-.57,1.46-.57-1.46h-.25Z"/><line class="cls-4" x1="55.34" y1="2.35" x2="55.34" y2="6.8"/></g></g></svg>